<svg width="16" height="16" viewBox="0 0 16 16" fill="none" xmlns="http://www.w3.org/2000/svg">
    <g clip-path="url(#1zax6qk58a)">
        <path d="M7.6 8c.22 0 .4.18.4.4v2.4c0 .22-.18.4-.4.4H5.2c-.22 0-.4-.18-.4-.4V8.4c0-.22.18-.4.4-.4h2.4zm-2-6.4a.6.6 0 0 1 .6.6v1h3.6v-1a.6.6 0 1 1 1.2 0v1h1a1.6 1.6 0 0 1 1.6 1.6v8c0 .883-.717 1.6-1.6 1.6H4a1.6 1.6 0 0 1-1.6-1.6v-8A1.6 1.6 0 0 1 4 3.2h1v-1a.6.6 0 0 1 .6-.6zm6.8 4.8H3.6v6.4c0 .22.179.4.4.4h8c.22 0 .4-.18.4-.4V6.4z" fill="#767676"/>
    </g>
    <defs>
        <clipPath id="1zax6qk58a">
            <path fill="#fff" transform="translate(2.4 1.6)" d="M0 0h11.2v12.8H0z"/>
        </clipPath>
    </defs>
</svg>
