<svg width="128" height="40" viewBox="0 0 128 40" fill="none" xmlns="http://www.w3.org/2000/svg">
<g clip-path="url(#clip0_850_27473)">
<path d="M20 40C31.0457 40 40 31.0457 40 20C40 8.9543 31.0457 0 20 0C8.9543 0 0 8.9543 0 20C0 31.0457 8.9543 40 20 40Z" fill="#0048BA"/>
<path fill-rule="evenodd" clip-rule="evenodd" d="M19.3248 12.6948C19.3248 11.9031 18.682 11.2603 17.8902 11.2603C17.0985 11.2603 16.4556 11.9031 16.4556 12.6948V20.0701C16.4556 20.8619 17.0985 21.5047 17.8902 21.5047C18.682 21.5047 19.3248 20.8619 19.3248 20.0701V12.6948Z" fill="white"/>
<path fill-rule="evenodd" clip-rule="evenodd" d="M27.215 18.625H28.291C29.0827 18.625 29.7256 19.2677 29.7256 20.0595C29.7256 20.8512 29.0827 21.4941 28.291 21.4941H25.9558C25.8984 21.5011 25.8398 21.5047 25.7805 21.5047C24.9887 21.5047 24.3459 20.8619 24.3459 20.0701C24.3459 20.0666 24.3459 20.063 24.3459 20.0595V14.3318C24.3459 13.5401 24.9887 12.8972 25.7805 12.8972C26.5722 12.8972 27.215 13.5401 27.215 14.3318V18.625Z" fill="white"/>
<path fill-rule="evenodd" clip-rule="evenodd" d="M12.5106 18.625V16.4402C12.5106 15.6484 13.1534 15.0056 13.9452 15.0056C14.7369 15.0056 15.3797 15.6484 15.3797 16.4402V20.0595C15.3797 20.063 15.3797 20.0666 15.3796 20.0701C15.3796 20.8619 14.7369 21.5047 13.9452 21.5047C13.8857 21.5047 13.8272 21.5011 13.7697 21.4941H11.4346C10.6428 21.4941 10.0001 20.8513 10.0001 20.0595C10.0001 19.2678 10.6428 18.625 11.4346 18.625H12.5106Z" fill="white"/>
<path fill-rule="evenodd" clip-rule="evenodd" d="M23.2699 9.76786C23.2699 8.9761 22.627 8.33325 21.8353 8.33325C21.0435 8.33325 20.4007 8.9761 20.4007 9.76786V20.0701C20.4007 20.8618 21.0435 21.5047 21.8353 21.5047C22.627 21.5047 23.2699 20.8618 23.2699 20.0701V9.76786Z" fill="white"/>
<path fill-rule="evenodd" clip-rule="evenodd" d="M28.2909 25.4934C29.0827 25.4934 29.7255 24.8506 29.7255 24.0588C29.7255 23.2671 29.0827 22.6243 28.2909 22.6243H11.4346C10.6428 22.6243 9.99998 23.2671 9.99998 24.0588C9.99998 24.8506 10.6428 25.4934 11.4346 25.4934H28.2909Z" fill="white"/>
<path fill-rule="evenodd" clip-rule="evenodd" d="M22.9758 30.6523C23.5356 31.2122 24.4447 31.2122 25.0046 30.6523C25.5644 30.0925 25.5644 29.1834 25.0046 28.6235L19.4254 23.0443C18.8655 22.4845 17.9564 22.4845 17.3966 23.0443C16.8367 23.6042 16.8367 24.5133 17.3966 25.0731L22.9758 30.6523Z" fill="white"/>
<path fill-rule="evenodd" clip-rule="evenodd" d="M14.721 28.6233C14.1612 29.1831 14.1611 30.0922 14.721 30.6521C15.2809 31.212 16.19 31.2119 16.7498 30.6521L22.329 25.0729C22.8889 24.5131 22.8889 23.6039 22.329 23.0441C21.7692 22.4842 20.8601 22.4842 20.3002 23.0441L14.721 28.6233Z" fill="white"/>
<path d="M53.1129 35.4386V29.8184L56.1553 26.6494L61.6065 35.4386H67.5223L59.747 22.8464L67.6913 14.5641H61.2262L53.1129 23.311V4H48V35.4386H53.1129Z" fill="#0048BA"/>
<path d="M68.1475 24.5306C68.1475 31.0381 72.838 35.517 79.3032 35.517C85.7683 35.517 90.4589 31.0381 90.4589 24.5306C90.4589 18.0232 85.7683 13.5439 79.3032 13.5439C72.838 13.5439 68.1475 18.0232 68.1475 24.5306ZM73.303 24.5306C73.303 20.7273 75.7538 18.1499 79.3032 18.1499C82.8528 18.1499 85.3036 20.7273 85.3036 24.5306C85.3036 28.3337 82.8528 30.9111 79.3032 30.9111C75.7538 30.9111 73.303 28.3337 73.303 24.5306Z" fill="#0048BA"/>
<path d="M105.348 14.4009C104.503 14.1896 103.784 14.1052 103.066 14.1052C100.277 14.1052 98.2911 15.4998 97.4035 17.5703L97.1079 14.5278H92.2483V35.36H97.4035V25.2186C97.4035 21.1619 99.7276 19.1758 103.446 19.1758H105.348V14.4009Z" fill="#0048BA"/>
<path d="M121.547 14.1052V25.0496C121.547 29.0216 119.983 30.9231 116.729 30.9231C113.856 30.9231 112.292 29.3172 112.292 25.3453V14.1052H107.137V27.1624C107.137 32.2753 109.968 35.529 114.786 35.529C117.574 35.529 120.279 34.1768 121.547 32.1907L121.927 35.529H126.703V14.1052H121.547Z" fill="#0048BA"/>
</g>
<defs>
<clipPath id="clip0_850_27473">
<rect width="128" height="40" fill="white"/>
</clipPath>
</defs>
</svg>
