<svg width="40" height="40" viewBox="0 0 40 40" fill="none" xmlns="http://www.w3.org/2000/svg">
    <path d="M20 40c11.046 0 20-8.954 20-20S31.046 0 20 0 0 8.954 0 20s8.954 20 20 20z" fill="#0048BA"/>
    <path fill-rule="evenodd" clip-rule="evenodd" d="M19.325 12.695a1.435 1.435 0 0 0-2.87 0v7.375a1.435 1.435 0 0 0 2.87 0v-7.375zM27.215 18.625h1.076a1.435 1.435 0 0 1 0 2.87h-2.335a1.435 1.435 0 0 1-1.61-1.424v-5.739a1.435 1.435 0 0 1 2.869 0v4.293zM12.51 18.625V16.44a1.435 1.435 0 0 1 2.87 0v3.63a1.435 1.435 0 0 1-1.61 1.424h-2.335a1.435 1.435 0 0 1 0-2.869h1.076zM23.27 9.768a1.435 1.435 0 0 0-2.87 0V20.07a1.435 1.435 0 0 0 2.87 0V9.768zM28.29 25.493a1.435 1.435 0 0 0 0-2.869H11.436a1.435 1.435 0 0 0 0 2.87H28.29z" fill="#fff"/>
    <path fill-rule="evenodd" clip-rule="evenodd" d="M22.976 30.652a1.435 1.435 0 0 0 2.029-2.029l-5.58-5.579a1.435 1.435 0 0 0-2.028 2.03l5.579 5.578z" fill="#fff"/>
    <path fill-rule="evenodd" clip-rule="evenodd" d="M14.721 28.623a1.435 1.435 0 0 0 2.029 2.03l5.579-5.58a1.435 1.435 0 0 0-2.029-2.029l-5.579 5.58z" fill="#fff"/>
</svg>
