<svg width="117" height="40" viewBox="0 0 117 40" fill="none" xmlns="http://www.w3.org/2000/svg">
    <g clip-path="url(#9ftzxg7qua)">
        <path d="M20.647 40c11.404 0 20.648-8.954 20.648-20S32.05 0 20.647 0C9.244 0 0 8.954 0 20s9.244 20 20.647 20z" fill="#0048BA"/>
        <path fill-rule="evenodd" clip-rule="evenodd" d="M19.95 12.695c0-.792-.663-1.435-1.48-1.435-.818 0-1.482.643-1.482 1.435v7.375c0 .792.664 1.435 1.481 1.435.818 0 1.481-.643 1.481-1.435v-7.375zM28.096 18.625h1.11c.818 0 1.482.643 1.482 1.434 0 .792-.664 1.435-1.481 1.435h-2.41c-.06.007-.12.01-.182.01-.817 0-1.481-.642-1.481-1.434V14.332c0-.792.664-1.435 1.481-1.435.817 0 1.481.643 1.481 1.435v4.293zM12.916 18.625V16.44c0-.792.663-1.434 1.48-1.434.818 0 1.482.642 1.482 1.434v3.63c0 .792-.664 1.435-1.481 1.435-.062 0-.122-.004-.182-.01h-2.41c-.818 0-1.481-.644-1.481-1.435 0-.792.663-1.435 1.48-1.435h1.112zM24.023 9.768c0-.792-.663-1.435-1.48-1.435-.818 0-1.482.643-1.482 1.435V20.07c0 .792.664 1.435 1.481 1.435.817 0 1.481-.643 1.481-1.435V9.768zM29.207 25.493c.817 0 1.48-.642 1.48-1.434 0-.792-.663-1.435-1.48-1.435H11.805c-.818 0-1.481.643-1.481 1.435s.663 1.434 1.48 1.434h17.403z" fill="#fff"/>
        <path fill-rule="evenodd" clip-rule="evenodd" d="M23.72 30.652c.578.56 1.516.56 2.094 0a1.404 1.404 0 0 0 0-2.029l-5.76-5.579a1.516 1.516 0 0 0-2.094 0 1.404 1.404 0 0 0 0 2.03l5.76 5.578z" fill="#fff"/>
        <path fill-rule="evenodd" clip-rule="evenodd" d="M15.198 28.623a1.404 1.404 0 0 0 0 2.03c.578.559 1.516.559 2.094 0l5.76-5.58a1.404 1.404 0 0 0 0-2.029 1.516 1.516 0 0 0-2.095 0l-5.76 5.58z" fill="#fff"/>
        <g clip-path="url(#9dd7bnmwbb)" fill="#0048BA">
            <path d="M52.576 32.866v-4.684l2.617-2.64 4.69 7.324h5.09l-6.69-10.494 6.835-6.902h-5.562l-6.98 7.29V6.666h-4.399v26.199h4.399zM65.51 23.776c0 5.422 4.036 9.155 9.598 9.155 5.562 0 9.597-3.733 9.597-9.155 0-5.423-4.035-9.156-9.597-9.156-5.562 0-9.598 3.733-9.598 9.156zm4.436 0c0-3.17 2.108-5.318 5.162-5.318 3.053 0 5.162 2.148 5.162 5.318 0 3.169-2.108 5.317-5.162 5.317s-5.162-2.148-5.162-5.317zM97.514 15.334a8.11 8.11 0 0 0-1.963-.246c-2.4 0-4.108 1.162-4.871 2.887l-.255-2.535h-4.18V32.8h4.435V24.35c0-3.38 2-5.036 5.198-5.036h1.636v-3.979zM111.45 15.088v9.12c0 3.31-1.345 4.895-4.144 4.895-2.472 0-3.817-1.338-3.817-4.648v-9.367h-4.435v10.88c0 4.262 2.435 6.973 6.58 6.973 2.399 0 4.726-1.127 5.816-2.782l.327 2.782h4.109V15.088h-4.436z"/>
        </g>
    </g>
    <defs>
        <clipPath id="9ftzxg7qua">
            <path fill="#fff" d="M0 0h116.429v40H0z"/>
        </clipPath>
        <clipPath id="9dd7bnmwbb">
            <path fill="#fff" transform="translate(48.177 6.667)" d="M0 0h68.251v26.667H0z"/>
        </clipPath>
    </defs>
</svg>
