<svg width="16" height="16" viewBox="0 0 16 16" fill="none" xmlns="http://www.w3.org/2000/svg">
    <g clip-path="url(#h0rjlcwq3a)">
        <path d="M6.08 8.32a2.56 2.56 0 1 0 0-5.12 2.56 2.56 0 0 0 0 5.12zm0-4.16c.882 0 1.6.718 1.6 1.6 0 .882-.718 1.6-1.6 1.6-.882 0-1.6-.718-1.6-1.6 0-.882.718-1.6 1.6-1.6zm1.014 5.12H5.066A3.466 3.466 0 0 0 1.6 12.746c0 .384.31.694.693.694h7.573c.384 0 .694-.31.694-.694A3.466 3.466 0 0 0 7.094 9.28zm-4.52 3.2a2.509 2.509 0 0 1 2.492-2.24h2.028c1.292 0 2.342.983 2.492 2.24H2.574zm8.608-2.88H9.705a4.051 4.051 0 0 1 1.495 3.146c0 .256-.076.492-.2.694h2.76c.354 0 .64-.288.64-.658 0-1.75-1.432-3.182-3.218-3.182zm-.942-1.28a2.239 2.239 0 0 0 2.24-2.24 2.239 2.239 0 0 0-2.24-2.24c-.502 0-.96.171-1.334.45.23.443.374.938.374 1.47 0 .71-.239 1.363-.632 1.894.406.41.968.666 1.592.666z" fill="#767676"/>
    </g>
    <defs>
        <clipPath id="h0rjlcwq3a">
            <path fill="#fff" transform="translate(1.6 3.2)" d="M0 0h12.8v10.24H0z"/>
        </clipPath>
    </defs>
</svg>
